<svg enable-background="new 0 0 64 64" viewBox="0 0 64 64" xmlns="http://www.w3.org/2000/svg" fill="#006271"><g><path d="m58.94 60.37h-8.9c-.48 0-.88-.33-.98-.8l-1.77-8.67h-30.58l-1.77 8.67c-.09.46-.5.8-.98.8h-8.9c-.3 0-.59-.14-.78-.38s-.26-.55-.19-.84l12.3-54.74c.1-.46.51-.78.98-.78h29.26c.47 0 .87.32.98.78l12.31 54.74c.07.3 0 .61-.19.84-.2.24-.49.38-.79.38zm-8.08-2h6.83l-11.86-52.74h-27.66l-11.86 52.74h6.83l1.77-8.67c.09-.47.5-.8.98-.8h32.22c.48 0 .88.33.98.8z"/></g><g><path d="m42.05 16.65h-20.1c-.3 0-.58-.13-.77-.36s-.27-.53-.21-.82l1.21-6.37c.09-.47.5-.81.98-.81h17.69c.48 0 .89.34.98.81l1.21 6.37c.06.29-.02.59-.21.82-.2.22-.48.36-.78.36zm-18.9-2h17.69l-.83-4.37h-16.03z"/></g><g><path d="m32 35.67c-.55 0-1-.45-1-1v-5.23c0-.55.45-1 1-1s1 .45 1 1v5.23c0 .55-.45 1-1 1z"/></g><g><path d="m32 39.28c-.55 0-1-.45-1-1v-.38c0-.55.45-1 1-1s1 .45 1 1v.39c0 .55-.45.99-1 .99z"/></g><g><path d="m44.17 44.02h-24.34c-.36 0-.69-.19-.87-.5s-.18-.69 0-1l12.17-21.26c.36-.62 1.38-.62 1.74 0l12.17 21.26c.18.31.18.69 0 1s-.51.5-.87.5zm-22.62-2h20.9l-10.45-18.25z"/></g><g><path d="m21.13 57.46h-6.58c-.55 0-1-.45-1-1s.45-1 1-1h5.76l1.21-5.76c.11-.54.64-.88 1.18-.77s.89.64.77 1.18l-1.38 6.55c-.08.46-.49.8-.96.8z"/></g><g><path d="m49.44 57.46h-6.58c-.47 0-.88-.33-.98-.79l-1.38-6.55c-.11-.54.23-1.07.77-1.18s1.07.23 1.18.77l1.21 5.76h5.76c.55 0 1 .45 1 1s-.42.99-.98.99z"/></g></svg>