
<svg xmlns="http://www.w3.org/2000/svg" xmlns:xlink="http://www.w3.org/1999/xlink" fill="#006271" x="0px" y="0px" viewBox="0 0 512 512" style="enable-background:new 0 0 512 512;" xml:space="preserve" width="512" height="512">
<g>
	<g>
		<g>
			<g>
				
					<line style="fill:none;stroke:#006271;stroke-width:15;stroke-linecap:round;stroke-linejoin:round;stroke-miterlimit:10;" x1="199" y1="238.5" x2="199" y2="273.5"/>
			</g>
		</g>
		<g>
			
				<line style="fill:none;stroke:#006271;stroke-width:15;stroke-linecap:round;stroke-linejoin:round;stroke-miterlimit:10;" x1="99" y1="273.5" x2="99" y2="238.5"/>
			
				<rect x="313" y="238.5" style="fill:none;stroke:#006271;stroke-width:15;stroke-linecap:round;stroke-linejoin:round;stroke-miterlimit:10;" width="100" height="35"/>
		</g>
		<g>
			
				<line style="fill:none;stroke:#006271;stroke-width:15;stroke-linecap:round;stroke-linejoin:round;stroke-miterlimit:10;" x1="7.5" y1="308.574" x2="504.5" y2="308.574"/>
			<g>
				
					<line style="fill:none;stroke:#006271;stroke-width:15;stroke-linecap:round;stroke-linejoin:round;stroke-miterlimit:10;" x1="7.5" y1="308.574" x2="7.5" y2="473.086"/>
			</g>
			<g>
				
					<line style="fill:none;stroke:#006271;stroke-width:15;stroke-linecap:round;stroke-linejoin:round;stroke-miterlimit:10;" x1="131.75" y1="308.574" x2="131.75" y2="473.086"/>
			</g>
			<g>
				
					<line style="fill:none;stroke:#006271;stroke-width:15;stroke-linecap:round;stroke-linejoin:round;stroke-miterlimit:10;" x1="256" y1="308.574" x2="256" y2="473.086"/>
			</g>
			<g>
				
					<line style="fill:none;stroke:#006271;stroke-width:15;stroke-linecap:round;stroke-linejoin:round;stroke-miterlimit:10;" x1="380.25" y1="370" x2="380.25" y2="308.574"/>
				
					<line style="fill:none;stroke:#006271;stroke-width:15;stroke-linecap:round;stroke-linejoin:round;stroke-miterlimit:10;" x1="380.25" y1="473.086" x2="380.25" y2="405"/>
			</g>
			<g>
				
					<line style="fill:none;stroke:#006271;stroke-width:15;stroke-linecap:round;stroke-linejoin:round;stroke-miterlimit:10;" x1="504.5" y1="308.574" x2="504.5" y2="473.086"/>
			</g>
			<g>
				<g>
					<path style="fill:none;stroke:#006271;stroke-width:15;stroke-linecap:round;stroke-linejoin:round;stroke-miterlimit:10;" d="&#10;&#9;&#9;&#9;&#9;&#9;&#9;M83.847,452.086H55.403c-6.781,0-12.278-5.497-12.278-12.278v-78.54c0-9.49,7.693-17.182,17.182-17.182h18.635&#10;&#9;&#9;&#9;&#9;&#9;&#9;c9.49,0,17.182,7.693,17.182,17.182v78.54C96.125,446.589,90.628,452.086,83.847,452.086z"/>
					
						<rect x="43.125" y="381.086" style="fill:none;stroke:#006271;stroke-width:15;stroke-linecap:round;stroke-linejoin:round;stroke-miterlimit:10;" width="53" height="42"/>
					
						<line style="fill:none;stroke:#006271;stroke-width:15;stroke-linecap:round;stroke-linejoin:round;stroke-miterlimit:10;" x1="61.292" y1="373.086" x2="77.958" y2="373.086"/>
					
						<line style="fill:none;stroke:#006271;stroke-width:15;stroke-linecap:round;stroke-linejoin:round;stroke-miterlimit:10;" x1="61.292" y1="426.086" x2="77.958" y2="426.086"/>
				</g>
			</g>
			<g>
				<g>
					<path style="fill:none;stroke:#006271;stroke-width:15;stroke-linecap:round;stroke-linejoin:round;stroke-miterlimit:10;" d="&#10;&#9;&#9;&#9;&#9;&#9;&#9;M208.097,452.086h-28.444c-6.781,0-12.278-5.497-12.278-12.278v-78.54c0-9.49,7.693-17.182,17.182-17.182h18.635&#10;&#9;&#9;&#9;&#9;&#9;&#9;c9.49,0,17.182,7.693,17.182,17.182v78.54C220.375,446.589,214.878,452.086,208.097,452.086z"/>
					
						<rect x="167.375" y="381.086" style="fill:none;stroke:#006271;stroke-width:15;stroke-linecap:round;stroke-linejoin:round;stroke-miterlimit:10;" width="53" height="42"/>
					
						<line style="fill:none;stroke:#006271;stroke-width:15;stroke-linecap:round;stroke-linejoin:round;stroke-miterlimit:10;" x1="185.542" y1="373.086" x2="202.208" y2="373.086"/>
					
						<line style="fill:none;stroke:#006271;stroke-width:15;stroke-linecap:round;stroke-linejoin:round;stroke-miterlimit:10;" x1="185.542" y1="426.086" x2="202.208" y2="426.086"/>
				</g>
			</g>
			<g>
				<g>
					<path style="fill:none;stroke:#006271;stroke-width:15;stroke-linecap:round;stroke-linejoin:round;stroke-miterlimit:10;" d="&#10;&#9;&#9;&#9;&#9;&#9;&#9;M456.597,452.086h-28.444c-6.781,0-12.278-5.497-12.278-12.278v-78.54c0-9.49,7.693-17.182,17.182-17.182h18.635&#10;&#9;&#9;&#9;&#9;&#9;&#9;c9.49,0,17.182,7.693,17.182,17.182v78.54C468.875,446.589,463.378,452.086,456.597,452.086z"/>
					
						<rect x="415.875" y="381.086" style="fill:none;stroke:#006271;stroke-width:15;stroke-linecap:round;stroke-linejoin:round;stroke-miterlimit:10;" width="53" height="42"/>
					
						<line style="fill:none;stroke:#006271;stroke-width:15;stroke-linecap:round;stroke-linejoin:round;stroke-miterlimit:10;" x1="434.042" y1="373.086" x2="450.708" y2="373.086"/>
					
						<line style="fill:none;stroke:#006271;stroke-width:15;stroke-linecap:round;stroke-linejoin:round;stroke-miterlimit:10;" x1="434.042" y1="426.086" x2="450.708" y2="426.086"/>
				</g>
			</g>
			
				<line style="fill:none;stroke:#006271;stroke-width:15;stroke-linecap:round;stroke-linejoin:round;stroke-miterlimit:10;" x1="504.5" y1="203.426" x2="7.5" y2="203.426"/>
			<g>
				
					<line style="fill:none;stroke:#006271;stroke-width:15;stroke-linecap:round;stroke-linejoin:round;stroke-miterlimit:10;" x1="504.5" y1="203.426" x2="504.5" y2="38.914"/>
			</g>
			<g>
				
					<line style="fill:none;stroke:#006271;stroke-width:15;stroke-linecap:round;stroke-linejoin:round;stroke-miterlimit:10;" x1="380.25" y1="203.426" x2="380.25" y2="38.914"/>
			</g>
			<g>
				
					<line style="fill:none;stroke:#006271;stroke-width:15;stroke-linecap:round;stroke-linejoin:round;stroke-miterlimit:10;" x1="256" y1="203.426" x2="256" y2="38.914"/>
			</g>
			
				<line style="fill:none;stroke:#006271;stroke-width:15;stroke-linecap:round;stroke-linejoin:round;stroke-miterlimit:10;" x1="131.75" y1="38.914" x2="131.75" y2="108"/>
			
				<line style="fill:none;stroke:#006271;stroke-width:15;stroke-linecap:round;stroke-linejoin:round;stroke-miterlimit:10;" x1="131.75" y1="143" x2="131.75" y2="203.426"/>
			<g>
				
					<line style="fill:none;stroke:#006271;stroke-width:15;stroke-linecap:round;stroke-linejoin:round;stroke-miterlimit:10;" x1="7.5" y1="203.426" x2="7.5" y2="38.914"/>
			</g>
			<g>
				<g>
					<path style="fill:none;stroke:#006271;stroke-width:15;stroke-linecap:round;stroke-linejoin:round;stroke-miterlimit:10;" d="&#10;&#9;&#9;&#9;&#9;&#9;&#9;M428.153,59.914h28.444c6.781,0,12.278,5.497,12.278,12.278v78.54c0,9.49-7.693,17.182-17.182,17.182h-18.635&#10;&#9;&#9;&#9;&#9;&#9;&#9;c-9.49,0-17.182-7.693-17.182-17.182v-78.54C415.875,65.411,421.372,59.914,428.153,59.914z"/>
					
						<rect x="415.875" y="88.914" transform="matrix(-1 -1.224647e-16 1.224647e-16 -1 884.75 219.8274)" style="fill:none;stroke:#006271;stroke-width:15;stroke-linecap:round;stroke-linejoin:round;stroke-miterlimit:10;" width="53" height="42"/>
					
						<line style="fill:none;stroke:#006271;stroke-width:15;stroke-linecap:round;stroke-linejoin:round;stroke-miterlimit:10;" x1="450.708" y1="138.914" x2="434.042" y2="138.914"/>
					
						<line style="fill:none;stroke:#006271;stroke-width:15;stroke-linecap:round;stroke-linejoin:round;stroke-miterlimit:10;" x1="450.708" y1="85.914" x2="434.042" y2="85.914"/>
				</g>
			</g>
			<g>
				<g>
					<path style="fill:none;stroke:#006271;stroke-width:15;stroke-linecap:round;stroke-linejoin:round;stroke-miterlimit:10;" d="&#10;&#9;&#9;&#9;&#9;&#9;&#9;M303.903,59.914h28.444c6.781,0,12.278,5.497,12.278,12.278v78.54c0,9.49-7.693,17.182-17.182,17.182h-18.635&#10;&#9;&#9;&#9;&#9;&#9;&#9;c-9.49,0-17.182-7.693-17.182-17.182v-78.54C291.625,65.411,297.122,59.914,303.903,59.914z"/>
					
						<rect x="291.625" y="88.914" transform="matrix(-1 -1.224647e-16 1.224647e-16 -1 636.25 219.8274)" style="fill:none;stroke:#006271;stroke-width:15;stroke-linecap:round;stroke-linejoin:round;stroke-miterlimit:10;" width="53" height="42"/>
					
						<line style="fill:none;stroke:#006271;stroke-width:15;stroke-linecap:round;stroke-linejoin:round;stroke-miterlimit:10;" x1="326.458" y1="138.914" x2="309.792" y2="138.914"/>
					
						<line style="fill:none;stroke:#006271;stroke-width:15;stroke-linecap:round;stroke-linejoin:round;stroke-miterlimit:10;" x1="326.458" y1="85.914" x2="309.792" y2="85.914"/>
				</g>
			</g>
		</g>
	</g>
	<path style="fill:none;stroke:#006271;stroke-width:15;stroke-linecap:round;stroke-linejoin:round;stroke-miterlimit:10;" d="&#10;&#9;&#9;M237,238.5H12.5c-2.761,0-5,2.239-5,5v25c0,2.761,2.239,5,5,5h487c2.761,0,5-2.239,5-5v-25c0-2.761-2.239-5-5-5H272"/>
</g>

</svg>
