<?xml version="1.0" encoding="utf-8"?>
<!-- Generator: Adobe Illustrator 24.0.1, SVG Export Plug-In . SVG Version: 6.00 Build 0)  -->
<svg version="1.1" id="Layer_1" xmlns="http://www.w3.org/2000/svg" xmlns:xlink="http://www.w3.org/1999/xlink" x="0px" y="0px"
	 viewBox="0 0 512 512" style="enable-background:new 0 0 512 512;" xml:space="preserve">
<style type="text/css">
	.st0{fill:#006271;}
</style>
<path class="st0" d="M218,322.7h-81.1c-6.9,0-12.5,5.6-12.5,12.5v69.3c0,6.9,5.6,12.5,12.5,12.5h36.6c4.1,0,7.5-3.4,7.5-7.5
	s-3.4-7.5-7.5-7.5h-34.1v-10.6h76.1V402H209c-4.1,0-7.5,3.4-7.5,7.5s3.4,7.5,7.5,7.5h9c6.9,0,12.5-5.6,12.5-12.5v-69.3
	C230.5,328.3,224.9,322.7,218,322.7z M155.4,376.4h-15.9v-38.7h15.9V376.4z M184.5,376.4h-14.2v-38.7h14.2V376.4z M215.5,376.4h-16
	v-38.7h16V376.4z"/>
<path class="st0" d="M218,100.7h-81.1c-6.9,0-12.5,5.6-12.5,12.5v69.3c0,6.9,5.6,12.5,12.5,12.5H218c6.9,0,12.5-5.6,12.5-12.5v-69.3
	C230.5,106.3,224.9,100.7,218,100.7z M170.4,115.7h14.2v38.7h-14.2V115.7z M139.4,115.7h15.9v38.7h-15.9V115.7z M215.5,180h-76.1
	v-10.6h76.1V180z M215.5,154.4h-16v-38.7h16V154.4z"/>
<path class="st0" d="M218,211.7h-81.1c-6.9,0-12.5,5.6-12.5,12.5v69.3c0,6.9,5.6,12.5,12.5,12.5H218c6.9,0,12.5-5.6,12.5-12.5v-69.3
	C230.5,217.3,224.9,211.7,218,211.7z M170.4,226.7h14.2v38.7h-14.2V226.7z M139.4,226.7h15.9v38.7h-15.9V226.7z M215.5,291h-76.1
	v-10.6h76.1V291z M215.5,265.4h-16v-38.7h16V265.4z"/>
<path class="st0" d="M326.7,165h-22c-6.9,0-12.5,5.6-12.5,12.5v35c0,6.9,5.6,12.5,12.5,12.5h22c6.9,0,12.5-5.6,12.5-12.5v-35
	C339.2,170.6,333.6,165,326.7,165z M324.2,210h-17v-30h17V210z"/>
<path class="st0" d="M387.7,165h-22c-6.9,0-12.5,5.6-12.5,12.5v35c0,6.9,5.6,12.5,12.5,12.5h22c6.9,0,12.5-5.6,12.5-12.5v-35
	C400.2,170.6,394.6,165,387.7,165z M385.2,210h-17v-30h17V210z"/>
<path class="st0" d="M326.7,235h-22c-6.9,0-12.5,5.6-12.5,12.5v35c0,6.9,5.6,12.5,12.5,12.5h22c6.9,0,12.5-5.6,12.5-12.5v-35
	C339.2,240.6,333.6,235,326.7,235z M324.2,280h-17v-30h17V280z"/>
<path class="st0" d="M387.7,235h-22c-6.9,0-12.5,5.6-12.5,12.5v35c0,6.9,5.6,12.5,12.5,12.5h22c6.9,0,12.5-5.6,12.5-12.5v-35
	C400.2,240.6,394.6,235,387.7,235z M385.2,280h-17v-30h17V280z"/>
<path class="st0" d="M326.7,305h-22c-6.9,0-12.5,5.6-12.5,12.5v35c0,6.9,5.6,12.5,12.5,12.5h22c6.9,0,12.5-5.6,12.5-12.5v-35
	C339.2,310.6,333.6,305,326.7,305z M324.2,349.9h-17v-30h17V349.9z"/>
<path class="st0" d="M387.7,305h-22c-6.9,0-12.5,5.6-12.5,12.5v35c0,6.9,5.6,12.5,12.5,12.5h22c6.9,0,12.5-5.6,12.5-12.5v-35
	C400.2,310.6,394.6,305,387.7,305z M385.2,349.9h-17v-30h17V349.9z"/>
<path class="st0" d="M326.7,374.9h-22c-6.9,0-12.5,5.6-12.5,12.5v35c0,6.9,5.6,12.5,12.5,12.5h22c6.9,0,12.5-5.6,12.5-12.5v-35
	C339.2,380.5,333.6,374.9,326.7,374.9z M324.2,419.9h-17v-30h17V419.9z"/>
<path class="st0" d="M387.7,374.9h-22c-6.9,0-12.5,5.6-12.5,12.5v35c0,6.9,5.6,12.5,12.5,12.5h22c6.9,0,12.5-5.6,12.5-12.5v-35
	C400.2,380.5,394.6,374.9,387.7,374.9z M385.2,419.9h-17v-30h17V419.9z"/>
<path class="st0" d="M504.5,459h-44v-27.7c20.4-3.6,36-21.4,36-42.8c0-24-19.5-43.5-43.5-43.5c-5.9,0-11.6,1.2-16.8,3.4v-24.9
	c0-4.1-3.4-7.5-7.5-7.5s-7.5,3.4-7.5,7.5v35.3c-7.3,7.8-11.7,18.2-11.7,29.7s4.5,21.9,11.7,29.7v40.7H275.3V222.5
	c0-4.1-3.4-7.5-7.5-7.5c-4.1,0-7.5,3.4-7.5,7.5v236.4H94.5v-42.7c6.2-7.5,10-17.2,10-27.7s-3.7-20.1-10-27.7V84h165.8v103
	c0,4.1,3.4,7.5,7.5,7.5c4.1,0,7.5-3.4,7.5-7.5v-35h145.9v135.5c0,4.1,3.4,7.5,7.5,7.5c4.1,0,7.5-3.4,7.5-7.5V152h2.5
	c6.9,0,12.5-5.6,12.5-12.5v-22c0-6.9-5.6-12.5-12.5-12.5H275.3V84h6.3c6.9,0,12.5-5.6,12.5-12.5v-22c0-6.9-5.6-12.5-12.5-12.5H73.3
	c-6.9,0-12.5,5.6-12.5,12.5v22c0,6.9,5.6,12.5,12.5,12.5h6.3v265.2c-5.6-2.7-11.9-4.2-18.5-4.2c-24,0-43.5,19.5-43.5,43.5
	c0,21.4,15.6,39.3,36,42.8V459h-46c-4.1,0-7.5,3.4-7.5,7.5s3.4,7.5,7.5,7.5h497c4.1,0,7.5-3.4,7.5-7.5S508.6,459,504.5,459z
	 M436.2,120v17H275.3v-17H436.2z M75.8,69V52h203.3v17H75.8z M79.5,459h-11v-27.7c3.9-0.7,7.6-1.9,11-3.5V459z M68.5,416v-9.5
	c0-4.1-3.4-7.5-7.5-7.5s-7.5,3.4-7.5,7.5v9.5c-12.1-3.3-21-14.4-21-27.5c0-15.7,12.8-28.5,28.5-28.5s28.5,12.8,28.5,28.5
	C89.5,401.6,80.6,412.7,68.5,416z M445.5,459h-9.3v-30.4c2.9,1.2,6,2.1,9.3,2.7V459z M453,399c-4.1,0-7.5,3.4-7.5,7.5v9.5
	c-12.1-3.3-21-14.4-21-27.5c0-15.7,12.8-28.5,28.5-28.5s28.5,12.8,28.5,28.5c0,13.1-8.9,24.2-21,27.5v-9.5
	C460.5,402.4,457.1,399,453,399z"/>
</svg>
